<svg width="23" height="22" viewBox="0 0 23 22" fill="none" xmlns="http://www.w3.org/2000/svg">
<g id="Component 2">
<path id="Vector" d="M21.3999 9.89997H12.6V1.09993C12.6 0.492864 12.1072 0 11.4999 0C10.8928 0 10.4 0.492864 10.4 1.09993V9.89997H1.59993C0.992864 9.89997 0.5 10.3928 0.5 10.9999C0.5 11.6072 0.992864 12.1 1.59993 12.1H10.4V20.8999C10.4 21.5071 10.8928 22 11.4999 22C12.1072 22 12.6 21.5071 12.6 20.8999V12.1H21.3999C22.0071 12.1 22.5 11.6072 22.5 10.9999C22.5 10.3928 22.0071 9.89997 21.3999 9.89997Z" fill="white"/>
</g>
</svg>
