<svg xmlns="http://www.w3.org/2000/svg" width="56" height="53" viewBox="0 0 56 53" fill="none">
  <mask id="mask0_1117_111" style="mask-type:luminance" maskUnits="userSpaceOnUse" x="0" y="0" width="56" height="53">
    <path d="M55.7777 0.611328H0.222168V52.1701H55.7777V0.611328Z" fill="white"/>
  </mask>
  <g mask="url(#mask0_1117_111)">
    <path d="M0.222168 3.72674C0.482446 2.94105 0.776335 2.17925 1.4205 1.60077C2.24911 0.857301 3.23383 0.611328 4.31731 0.611328C12.7061 0.614245 21.0949 0.613135 29.4831 0.613135C34.4369 0.613135 39.3901 0.610773 44.3438 0.614245C46.1511 0.615495 47.5162 1.4673 48.0927 2.93397C48.3783 3.66008 48.4831 5.12022 48.3136 6.09161C48.2369 6.10508 48.1516 6.13202 48.0662 6.13313C47.5804 6.1373 47.0945 6.13494 46.5251 6.13494C46.5251 5.60327 46.528 5.108 46.5251 4.61202C46.5156 3.17647 45.7954 2.45452 44.3515 2.45397C30.973 2.45216 17.5951 2.45161 4.21661 2.45397C2.80675 2.45397 2.07133 3.18633 2.07133 4.57924C2.06953 16.6763 2.06953 28.7734 2.07133 40.8705C2.07133 42.2312 2.81217 42.963 4.18425 42.9759C4.68772 42.9806 5.1912 42.9765 5.73119 42.9765V44.798C4.23425 44.8273 2.74967 44.979 1.50189 43.8969C0.815779 43.302 0.489529 42.524 0.222168 41.7001V3.72674Z" fill="#64BD2F"/>
    <path d="M31.6902 52.1707C24.9821 52.1707 18.2739 52.1729 11.5666 52.1689C9.64323 52.1677 8.22809 51.146 7.77225 49.4124C7.66392 49.0013 7.6285 48.5604 7.6285 48.1331C7.62087 36.0886 7.62156 24.0443 7.62392 11.9999C7.62392 9.99988 8.61851 8.60988 10.4152 8.12974C10.8439 8.01502 11.3074 7.98863 11.7549 7.98863C25.0621 7.98155 38.3699 7.98099 51.6771 7.98461C54.2682 7.98516 55.7777 9.50155 55.7777 12.0802C55.7777 24.0706 55.7777 36.0611 55.7777 48.0517C55.7777 50.6764 54.2813 52.1707 51.6513 52.1713C44.9974 52.1718 38.3441 52.1707 31.6902 52.1707ZM31.6584 50.3334C38.311 50.3334 44.9643 50.3334 51.6171 50.3334C53.2636 50.3334 53.9296 49.6782 53.9296 48.0575C53.9296 36.0682 53.9296 24.0795 53.9296 12.09C53.9296 10.4964 53.2631 9.83127 51.6571 9.83127C38.3511 9.83002 25.045 9.83002 11.7391 9.83127C10.1431 9.83127 9.47475 10.5039 9.47475 12.1047C9.4742 24.094 9.4742 36.0828 9.47475 48.0721C9.47475 49.6577 10.1578 50.3328 11.7532 50.3328C18.3882 50.3328 25.0232 50.3334 31.6584 50.3334Z" fill="#64BD2F"/>
    <path d="M5.73622 4.33398V6.10745H3.95483V4.33398H5.73622Z" fill="#64BD2F"/>
    <path d="M7.6604 4.32422H9.43526V6.08839H7.6604V4.32422Z" fill="#64BD2F"/>
    <path d="M11.3587 6.10275C11.3463 5.93303 11.3316 5.81067 11.3292 5.68831C11.2998 4.16359 11.3003 4.15775 12.8321 4.3047C12.9563 4.31636 13.1577 4.48039 13.1648 4.58456C13.2002 5.07761 13.1807 5.5747 13.1807 6.1022L11.3587 6.10275Z" fill="#64BD2F"/>
    <path d="M27.9997 22.3597C27.9997 21.6173 27.9933 20.8807 28.0015 20.1447C28.0104 19.3907 28.3443 19.0446 29.0891 19.0411C30.8252 19.0329 32.5612 19.0335 34.2973 19.0411C35.0564 19.044 35.3839 19.3719 35.3968 20.1254C35.4075 20.7543 35.412 21.3843 35.3939 22.013C35.3857 22.2918 35.4722 22.4493 35.7519 22.5137C35.9262 22.5542 36.0916 22.6337 36.259 22.7011C36.8922 22.954 37.4565 22.8344 37.952 22.3422C38.2589 22.0371 38.5557 21.721 38.8777 21.4323C39.3307 21.0265 39.7994 21.0078 40.2316 21.4287C41.5366 22.6987 42.8286 23.9833 44.1065 25.2803C44.5276 25.7076 44.514 26.1848 44.103 26.6268C43.6737 27.0889 43.2132 27.5221 42.7668 27.9676C42.6902 28.0444 42.5359 28.1428 42.5501 28.1948C42.7037 28.7435 42.8633 29.2926 43.073 29.8214C43.1219 29.9443 43.364 30.0521 43.5223 30.0597C44.1177 30.0878 44.7154 30.065 45.312 30.0725C46.1623 30.083 46.5169 30.4128 46.5227 31.2383C46.534 32.928 46.5351 34.6183 46.5222 36.3087C46.5162 37.0915 46.1789 37.4223 45.3968 37.4429C44.7643 37.4593 44.1295 37.4258 43.4987 37.4622C43.3351 37.4715 43.1802 37.6594 43.0259 37.7707C43.0012 37.7883 43.0041 37.8398 42.9841 37.8685C42.2862 38.8679 42.6277 39.5647 43.4958 40.32C44.7955 41.4512 44.7401 41.6297 43.5218 42.8412C42.4859 43.8711 41.4523 44.9033 40.413 45.9292C39.7905 46.5433 39.3265 46.5386 38.6976 45.9221C38.2859 45.518 37.8801 45.1076 37.4691 44.7025C37.3802 44.6147 37.2489 44.4501 37.1894 44.4707C36.6305 44.6621 36.0605 44.8454 35.5476 45.1276C35.4062 45.2054 35.4157 45.6054 35.4057 45.8594C35.3857 46.398 35.4104 46.9385 35.3944 47.4772C35.3762 48.1096 35.0523 48.4785 34.4357 48.4848C32.6095 48.5042 30.7829 48.5047 28.9566 48.4836C28.3501 48.4767 28.0191 48.0919 28.0039 47.4625C27.9886 46.8337 27.985 46.2037 28.0062 45.5748C28.0168 45.2635 27.9484 45.0614 27.6111 44.99C27.4191 44.9496 27.2354 44.8635 27.0522 44.7868C26.4872 44.5503 25.9832 44.6525 25.54 45.0936C25.2207 45.4115 24.9086 45.7382 24.5789 46.0444C24.1041 46.4847 23.5901 46.5117 23.1361 46.069C21.8582 44.8225 20.5926 43.563 19.3407 42.2914C18.8572 41.8007 18.8819 41.3318 19.3719 40.8242C19.8223 40.3569 20.3058 39.9207 20.7398 39.4394C20.847 39.3205 20.8907 39.0523 20.8347 38.899C20.6586 38.4154 20.5408 37.7725 20.1751 37.5347C19.8029 37.2929 19.1627 37.4511 18.6404 37.4493C16.9968 37.4446 16.8955 37.3457 16.8955 35.6933C16.8955 34.2372 16.892 32.7805 16.8968 31.3243C16.9002 30.3771 17.2094 30.0778 18.1734 30.0725C18.7523 30.069 19.3312 30.0785 19.9095 30.0667C20.0397 30.0637 20.2469 30.0333 20.2852 29.953C20.5243 29.4514 20.7387 28.9361 20.9254 28.4126C20.9548 28.3294 20.8234 28.1626 20.7316 28.0678C20.2923 27.6151 19.8341 27.1801 19.3948 26.7269C18.8666 26.1819 18.8583 25.7164 19.3912 25.1801C20.6109 23.9517 21.8382 22.731 23.073 21.5178C23.6101 20.9903 24.0777 20.9985 24.6289 21.5248C25.0723 21.948 25.5093 22.3785 25.9315 22.8235C26.1323 23.0354 26.3037 23.0986 26.5876 22.9569C27.0375 22.7333 27.5139 22.5611 27.9997 22.3597ZM21.2086 25.9933C21.6891 26.4494 22.152 26.8746 22.5984 27.3154C23.1272 27.8376 23.149 28.1362 22.8445 28.8067C22.5118 29.5403 22.202 30.2862 21.92 31.041C21.6697 31.7096 21.4507 31.9028 20.7364 31.9104C20.0909 31.9175 19.4455 31.9117 18.7912 31.9117V35.5985C19.4466 35.5985 20.0591 35.5926 20.6715 35.5997C21.4377 35.6085 21.6532 35.7818 21.9189 36.4703C22.2091 37.2221 22.5165 37.9686 22.8451 38.704C23.1579 39.4037 23.1308 39.6865 22.5672 40.2369C22.1219 40.6719 21.6579 41.0887 21.2793 41.4418C22.2191 42.3757 23.0672 43.2189 23.9658 44.1117C24.3709 43.6907 24.8202 43.2247 25.2684 42.7575C25.6659 42.3423 26.097 42.2673 26.637 42.5162C27.4368 42.8851 28.257 43.2123 29.0815 43.5244C29.6073 43.7236 29.8623 44.059 29.8507 44.6205C29.8365 45.2798 29.847 45.9403 29.847 46.6194H33.5454C33.5454 45.9408 33.55 45.2968 33.5441 44.6528C33.5388 44.0807 33.7879 43.7223 34.3439 43.5168C35.1707 43.2118 35.9851 42.8698 36.7877 42.5062C37.3043 42.2721 37.727 42.3365 38.1122 42.7375C38.5733 43.2176 39.0355 43.6972 39.4372 44.114C40.3418 43.2036 41.1968 42.3429 42.0966 41.4365C41.6802 41.0396 41.2133 40.59 40.7416 40.1455C40.3152 39.7439 40.2734 39.3042 40.519 38.779C40.8534 38.0653 41.1668 37.3398 41.4423 36.6021C41.7622 35.7467 41.9312 35.6008 42.8633 35.5979C43.4511 35.5955 44.0382 35.5979 44.6341 35.5979V31.9104C43.9345 31.9104 43.2702 31.9017 42.6072 31.9133C42.0419 31.9233 41.7133 31.6639 41.5166 31.1376C41.2157 30.3325 40.8752 29.5415 40.5301 28.754C40.2564 28.1287 40.2811 27.8347 40.7722 27.3511C41.2315 26.8992 41.7144 26.4705 42.155 26.0607C41.2191 25.1326 40.3652 24.2867 39.4572 23.3867C39.0455 23.8142 38.5833 24.2912 38.1245 24.7719C37.7229 25.1929 37.2865 25.2457 36.7536 24.9973C36.004 24.6479 35.2361 24.3353 34.4629 24.0396C33.7302 23.759 33.5512 23.5454 33.5465 22.776C33.5423 22.1548 33.5459 21.533 33.5459 20.9165H29.8848C29.8683 20.9919 29.8541 21.026 29.8536 21.0605C29.8507 21.6354 29.8507 22.2104 29.8476 22.786C29.8436 23.546 29.6751 23.7573 28.9814 24.0237C28.2087 24.32 27.4444 24.6385 26.6865 24.9711C26.0198 25.2639 25.7595 25.2428 25.2355 24.7182C24.779 24.2614 24.3439 23.783 23.9027 23.3176C22.9841 24.2298 22.1402 25.0682 21.2086 25.9933Z" fill="#64BD2F"/>
    <path d="M52.0612 15.4023V17.1583H11.3604V15.4023H52.0612Z" fill="#64BD2F"/>
    <path d="M11.3272 21.7496C11.3272 21.2168 11.3107 20.7343 11.3396 20.2542C11.346 20.1471 11.5121 19.9609 11.6051 19.9603C13.9507 19.9545 16.2962 19.9691 18.6418 19.9814C18.6554 19.9814 18.6689 20.0042 18.7149 20.0452V21.7491L11.3272 21.7496Z" fill="#64BD2F"/>
    <path d="M11.3278 23.6699H16.893C16.893 24.1999 16.9123 24.6981 16.877 25.1928C16.8694 25.2965 16.6591 25.4669 16.5408 25.4681C14.9189 25.4862 13.2966 25.4862 11.6748 25.4681C11.5581 25.4669 11.3509 25.2924 11.3438 25.1876C11.3084 24.6928 11.3278 24.1946 11.3278 23.6699Z" fill="#64BD2F"/>
    <path d="M52.0682 46.6895V48.4951C51.143 48.4951 50.2301 48.4951 49.3168 48.4951C48.4034 48.4951 47.5148 48.4951 46.5708 48.4951V46.6895H52.0682Z" fill="#64BD2F"/>
    <path d="M11.3604 13.5144V11.7188H13.1772C13.1772 12.2287 13.193 12.7246 13.1642 13.2176C13.1583 13.3212 12.991 13.4951 12.8904 13.501C12.394 13.5303 11.8945 13.5144 11.3604 13.5144Z" fill="#64BD2F"/>
    <path d="M16.8722 11.7188V13.4676H15.0767V11.7188H16.8722Z" fill="#64BD2F"/>
    <path d="M20.5654 13.4855H18.7822V11.7168H20.5654V13.4855Z" fill="#64BD2F"/>
    <path d="M25.2227 33.7666C25.2145 30.2366 28.0995 27.3519 31.6599 27.3302C35.2404 27.3085 38.1695 30.181 38.1902 33.7338C38.2108 37.2791 35.2992 40.1884 31.7217 40.1966C28.1384 40.2053 25.2316 37.3288 25.2227 33.7666ZM31.6829 29.1758C29.1383 29.188 27.0583 31.2741 27.0861 33.7848C27.1142 36.3223 29.1995 38.3758 31.7277 38.3563C34.2547 38.337 36.3711 36.217 36.3369 33.7385C36.3022 31.2033 34.2216 29.1634 31.6829 29.1758Z" fill="#66BF2B"/>
  </g>
</svg>