<svg width="40" height="40" viewBox="0 0 40 40" fill="none" xmlns="http://www.w3.org/2000/svg">
<path d="M0.5 20C0.5 9.23045 9.23045 0.5 20 0.5C30.7696 0.5 39.5 9.23045 39.5 20C39.5 30.7696 30.7696 39.5 20 39.5C9.23045 39.5 0.5 30.7696 0.5 20Z" fill="url(#paint0_linear_1029_1297)"/>
<path d="M0.5 20C0.5 9.23045 9.23045 0.5 20 0.5C30.7696 0.5 39.5 9.23045 39.5 20C39.5 30.7696 30.7696 39.5 20 39.5C9.23045 39.5 0.5 30.7696 0.5 20Z" stroke="url(#paint1_linear_1029_1297)"/>
<path d="M15.3335 20H24.6668" stroke="white" stroke-width="1.5" stroke-linecap="round" stroke-linejoin="round"/>
<path d="M20 15.3333L24.6667 20L20 24.6667" stroke="white" stroke-width="1.5" stroke-linecap="round" stroke-linejoin="round"/>
<defs>
<linearGradient id="paint0_linear_1029_1297" x1="-72.7273" y1="13" x2="61.0963" y2="13.3355" gradientUnits="userSpaceOnUse">
<stop offset="0.328464" stop-color="#126106"/>
<stop offset="0.792806" stop-color="#0F294E"/>
</linearGradient>
<linearGradient id="paint1_linear_1029_1297" x1="40" y1="20" x2="-6.19907e-07" y2="20" gradientUnits="userSpaceOnUse">
<stop stop-color="#126106"/>
<stop offset="1" stop-color="#0F294E"/>
</linearGradient>
</defs>
</svg>
