<svg xmlns="http://www.w3.org/2000/svg" width="190" height="90" viewBox="0 0 190 90" fill="none">
  <path d="M103.172 14.253L105.105 14.2864L110.357 9.03763L110.61 6.81385C106.437 3.10366 100.945 0.845947 94.9346 0.845947C84.0522 0.845947 74.8668 8.24606 72.1462 18.27C72.7205 17.87 73.9456 18.1688 73.9456 18.1688L84.4426 16.4428C84.4426 16.4428 84.9835 15.5479 85.2539 15.6036C85.3932 15.4517 85.5355 15.3028 85.6819 15.1575C85.8282 15.0121 85.9776 14.8698 86.1306 14.7315C86.2835 14.5933 86.4395 14.4586 86.5985 14.3274C86.7581 14.1967 86.9201 14.0691 87.0857 13.9461C87.2508 13.8225 87.419 13.7035 87.5897 13.588C87.7608 13.4725 87.934 13.3611 88.1103 13.2537C88.2865 13.1464 88.4653 13.0436 88.6461 12.9448C88.8274 12.8461 89.0107 12.7514 89.1961 12.6612C89.3814 12.5711 89.5688 12.485 89.7587 12.4039C89.9481 12.3224 90.1396 12.2459 90.3325 12.1735C90.526 12.1011 90.7205 12.0332 90.917 11.9704C91.1135 11.9071 91.311 11.8489 91.51 11.7947C91.709 11.741 91.9096 11.6919 92.1112 11.6478C92.3122 11.6033 92.5148 11.5638 92.7184 11.5288C92.9215 11.4939 93.1256 11.464 93.3302 11.4387C93.5348 11.4138 93.7404 11.3931 93.946 11.3779C94.1516 11.3622 94.3577 11.3516 94.5638 11.346C94.77 11.3399 94.9761 11.3394 95.1822 11.3429C95.3883 11.347 95.5945 11.3556 95.8006 11.3693C96.0062 11.383 96.2118 11.4017 96.4164 11.425C96.6215 11.4483 96.8256 11.4766 97.0292 11.5096C97.2333 11.5425 97.4359 11.58 97.6374 11.6225C97.8395 11.665 98.0401 11.7127 98.2396 11.7643C98.4396 11.8165 98.6377 11.8732 98.8347 11.9345C99.0317 11.9958 99.2272 12.0616 99.4206 12.1325C99.6146 12.2029 99.8065 12.2778 99.9969 12.3579C100.187 12.4374 100.375 12.5214 100.562 12.6101C100.748 12.6982 100.932 12.7914 101.114 12.8886C101.296 12.9853 101.475 13.0871 101.653 13.1925C101.83 13.2983 102.004 13.4082 102.176 13.5222C102.348 13.6356 102.518 13.7536 102.684 13.8757C102.85 13.9972 103.013 14.1233 103.174 14.253H103.172Z" fill="#EA4335"/>
  <path d="M117.755 18.2887C117.455 17.1852 117.077 16.1095 116.62 15.0612C116.164 14.0123 115.634 13.0025 115.031 12.0306C114.428 11.0593 113.757 10.136 113.021 9.26191C112.283 8.38729 111.487 7.5709 110.631 6.81226L103.193 14.2458C103.573 14.5517 103.935 14.8773 104.279 15.2232C104.623 15.5696 104.947 15.9338 105.25 16.3156C105.553 16.698 105.834 17.096 106.093 17.5093C106.352 17.9231 106.587 18.35 106.797 18.7896C107.009 19.2297 107.194 19.6799 107.355 20.1403C107.516 20.6011 107.65 21.0691 107.758 21.5451C107.867 22.0207 107.948 22.5008 108.002 22.9854C108.057 23.4701 108.084 23.9563 108.084 24.4445V25.7562C111.704 25.7562 114.641 28.7001 114.641 32.309C114.641 35.9174 111.695 38.8614 108.084 38.8614H94.9685L93.6553 40.1781V48.0447L94.9685 49.3498H108.084C108.363 49.3492 108.642 49.3416 108.92 49.3275C109.198 49.3128 109.476 49.2915 109.754 49.2637C110.031 49.2358 110.308 49.2009 110.583 49.1598C110.859 49.1183 111.133 49.0697 111.407 49.015C111.68 48.9603 111.951 48.8985 112.222 48.8301C112.492 48.7623 112.761 48.6873 113.027 48.6058C113.294 48.5248 113.558 48.4366 113.821 48.3424C114.083 48.2482 114.343 48.1475 114.6 48.0406C114.857 47.9337 115.112 47.8203 115.364 47.7008C115.616 47.5813 115.865 47.4557 116.11 47.324C116.356 47.1928 116.598 47.0551 116.837 46.9117C117.076 46.7679 117.312 46.619 117.543 46.4641C117.775 46.3091 118.002 46.1485 118.226 45.9819C118.45 45.8158 118.669 45.6446 118.885 45.4679C119.1 45.2906 119.311 45.1088 119.518 44.9214C119.724 44.7346 119.926 44.5421 120.123 44.3451C120.32 44.1481 120.512 43.9465 120.699 43.7399C120.887 43.5333 121.068 43.3226 121.245 43.1074C121.422 42.8916 121.594 42.6723 121.76 42.4485C121.926 42.2246 122.086 41.9972 122.241 41.7653C122.396 41.5338 122.545 41.2984 122.689 41.0598C122.832 40.8208 122.97 40.5787 123.101 40.3331C123.232 40.0875 123.358 39.8388 123.477 39.5866C123.597 39.3349 123.71 39.0806 123.817 38.8234C123.924 38.5661 124.024 38.3063 124.118 38.044C124.212 37.7816 124.3 37.5173 124.381 37.2509C124.463 36.9845 124.537 36.7161 124.605 36.4461C124.673 36.1757 124.735 35.9042 124.789 35.6308C124.844 35.3578 124.892 35.0833 124.934 34.8078C124.975 34.5323 125.01 34.2563 125.037 33.9788C125.065 33.7017 125.086 33.4237 125.1 33.1457C125.114 32.8676 125.122 32.5891 125.122 32.3105C125.115 26.5077 122.189 21.3674 117.738 18.2887H117.755Z" fill="#4285F4"/>
  <path d="M81.8204 49.362H94.9331V38.8716H81.8204C80.8784 38.8716 79.9784 38.6766 79.1215 38.2852L77.229 38.8645L71.9772 44.1133L71.5178 45.8863C72.2511 46.4495 73.026 46.9488 73.8424 47.3839C74.6583 47.8194 75.5045 48.1846 76.3807 48.4808C77.2573 48.7766 78.1517 48.9989 79.0648 49.1473C79.9779 49.2957 80.8971 49.3681 81.8219 49.3651L81.8204 49.362Z" fill="#34A853"/>
  <path d="M81.8204 15.2708C81.5413 15.2713 81.2623 15.2789 80.9837 15.2925C80.7052 15.3067 80.4271 15.3275 80.1491 15.3553C79.8716 15.3832 79.5951 15.4176 79.319 15.4591C79.043 15.5002 78.768 15.5483 78.4946 15.603C78.2211 15.6577 77.9486 15.719 77.6782 15.7868C77.4077 15.8552 77.1388 15.9296 76.8719 16.0112C76.605 16.0922 76.3402 16.1798 76.0778 16.274C75.815 16.3682 75.5547 16.469 75.2974 16.5759C75.0396 16.6827 74.7844 16.7956 74.5322 16.9152C74.2805 17.0347 74.0313 17.1603 73.7852 17.2915C73.539 17.4231 73.2965 17.5609 73.0574 17.7042C72.8179 17.8475 72.5824 17.9969 72.3504 18.1519C72.1185 18.3069 71.8906 18.4674 71.6667 18.634C71.4424 18.8001 71.2226 18.9713 71.0068 19.1486C70.7911 19.3253 70.5799 19.5076 70.3733 19.695C70.1666 19.8819 69.9646 20.0743 69.7671 20.2714C69.5701 20.4689 69.3776 20.6704 69.1902 20.8771C69.0028 21.0837 68.8205 21.2949 68.6438 21.5106C68.4665 21.7258 68.2948 21.9456 68.1287 22.1695C67.9621 22.3933 67.8016 22.6212 67.6466 22.8532C67.4916 23.0851 67.3422 23.3206 67.1984 23.5597C67.0551 23.7987 66.9173 24.0413 66.7856 24.2869C66.654 24.5325 66.5284 24.7817 66.4089 25.0339C66.2893 25.2856 66.1764 25.5404 66.069 25.7981C65.9622 26.0554 65.8614 26.3157 65.7672 26.5781C65.673 26.8404 65.5854 27.1053 65.5044 27.3717C65.4228 27.6385 65.3484 27.9075 65.28 28.1779C65.2121 28.4483 65.1509 28.7198 65.0957 28.9933C65.041 29.2668 64.9928 29.5412 64.9518 29.8173C64.9103 30.0933 64.8759 30.3698 64.848 30.6473C64.8207 30.9248 64.7994 31.2024 64.7857 31.4809C64.7715 31.7595 64.7639 32.0385 64.7634 32.317C64.7634 32.9729 64.8014 33.6262 64.8769 34.2775C64.9523 34.9288 65.0653 35.5735 65.2152 36.2116C65.3656 36.8502 65.552 37.4777 65.7743 38.094C65.9971 38.7109 66.2544 39.3125 66.5466 39.8995C66.8388 40.487 67.164 41.0547 67.522 41.6042C67.8801 42.1537 68.268 42.6809 68.6868 43.1853C69.1057 43.6902 69.5523 44.1688 70.0264 44.622C70.5009 45.0748 70.9997 45.4992 71.5229 45.8947L79.1266 38.2951C78.8405 38.1664 78.5644 38.0181 78.2996 37.8494C78.0342 37.6813 77.7825 37.4944 77.5445 37.2898C77.3059 37.0852 77.0836 36.8649 76.877 36.6284C76.6704 36.3919 76.482 36.1417 76.3113 35.8778C76.1411 35.6145 75.9902 35.34 75.859 35.0549C75.7279 34.7692 75.618 34.4765 75.5288 34.1752C75.4397 33.8738 75.3729 33.568 75.3278 33.2575C75.2832 32.9466 75.2604 32.6346 75.2604 32.3206C75.2604 28.7031 78.2059 25.7683 81.8168 25.7683C82.1308 25.7688 82.4433 25.7916 82.7542 25.8371C83.0647 25.8822 83.3706 25.9496 83.6719 26.0387C83.9727 26.1278 84.266 26.2377 84.5516 26.3689C84.8367 26.5001 85.1112 26.6505 85.3751 26.8212C85.6384 26.9913 85.8886 27.1797 86.1256 27.3863C86.3621 27.5925 86.5829 27.8143 86.7875 28.0523C86.9926 28.2903 87.1795 28.5415 87.3482 28.8059C87.5168 29.0708 87.6662 29.3463 87.7953 29.6319L95.3991 22.0328C92.2799 17.9291 87.3558 15.2778 81.8133 15.2778L81.8204 15.2708Z" fill="#FBBC05"/>
  <mask id="mask0_960_21709" style="mask-type:luminance" maskUnits="userSpaceOnUse" x="0" y="56" width="190" height="34">
    <path d="M0.580566 56.5391H189.22V89.9561H0.580566V56.5391Z" fill="white"/>
  </mask>
  <g mask="url(#mask0_960_21709)">
    <path d="M13.8336 82.4188C10.2515 82.4188 7.1759 81.1527 4.58394 78.6195C1.99197 76.0863 0.69751 73.0395 0.69751 69.4869C0.69751 65.9337 1.98995 62.8869 4.58394 60.3537C7.17742 57.8205 10.2566 56.5524 13.8336 56.5524C14.2428 56.5463 14.6515 56.561 15.0592 56.5954C15.4674 56.6298 15.872 56.6845 16.2746 56.7595C16.6772 56.8345 17.0748 56.9286 17.4678 57.0431C17.8608 57.1571 18.2472 57.2908 18.627 57.4432C19.0064 57.5956 19.3781 57.7668 19.7407 57.9562C20.1033 58.1456 20.4558 58.3523 20.7981 58.5766C21.1405 58.801 21.4707 59.042 21.7887 59.2988C22.1073 59.5561 22.4122 59.8285 22.7034 60.1157L20.2076 62.6099C19.7848 62.2012 19.3259 61.8376 18.8316 61.519C18.3374 61.2005 17.8167 60.9326 17.2703 60.7163C16.7233 60.4996 16.1607 60.3385 15.5818 60.2322C15.0035 60.1258 14.42 60.0772 13.8321 60.0853C11.2467 60.0853 9.04973 60.9974 7.24883 62.8327C7.03005 63.05 6.82291 63.2769 6.62743 63.5149C6.43194 63.7524 6.24911 63.9996 6.07844 64.2558C5.90777 64.5121 5.75078 64.7765 5.60695 65.0484C5.46312 65.3209 5.33347 65.5994 5.21749 65.8846C5.10203 66.1697 5.00074 66.4604 4.91464 66.7556C4.82855 67.0509 4.75714 67.3502 4.70092 67.6525C4.64522 67.9554 4.60419 68.2598 4.57938 68.5667C4.55406 68.8736 4.54443 69.1805 4.55001 69.4884C4.55001 72.0991 5.44539 74.3132 7.24883 76.142C7.46001 76.3633 7.68184 76.5735 7.9148 76.772C8.14827 76.9705 8.39085 77.1564 8.64306 77.3301C8.89527 77.5033 9.15558 77.6634 9.4245 77.8097C9.69342 77.9561 9.96943 78.0883 10.2515 78.2063C10.5341 78.3243 10.8223 78.4271 11.1155 78.5152C11.4087 78.6033 11.7055 78.6762 12.0063 78.7335C12.3072 78.7912 12.61 78.8327 12.9154 78.8591C13.2203 78.8849 13.5257 78.895 13.8321 78.8894C16.4645 78.8894 18.6392 78.0452 20.3712 76.299C21.3851 75.2856 22.0612 73.7658 22.2977 71.8494H13.8386V68.3165H25.7415C25.8681 68.9445 25.9107 69.6672 25.9107 70.5119C25.9107 73.9836 24.8917 76.7366 22.8467 78.778C20.5287 81.2013 17.524 82.4087 13.8153 82.4087L13.8336 82.4188ZM41.4954 80.0548C39.8732 81.6425 37.8961 82.4188 35.5609 82.4188C33.2257 82.4188 31.245 81.6252 29.6264 80.0548C28.0073 78.4843 27.1965 76.4864 27.1965 74.1102C27.1965 71.7344 28.0073 69.7533 29.6264 68.1661C31.245 66.5784 33.2257 65.802 35.5609 65.802C37.8961 65.802 39.8763 66.5956 41.4954 68.1661C43.114 69.7365 43.9253 71.7395 43.9253 74.1102C43.9253 76.4813 43.114 78.4676 41.4954 80.0548ZM32.2452 77.7241C32.4564 77.953 32.6884 78.1576 32.9421 78.3379C33.1963 78.5182 33.4658 78.6702 33.7514 78.7932C34.0375 78.9168 34.3328 79.0095 34.6377 79.0708C34.943 79.132 35.2515 79.1614 35.5624 79.1579C36.8468 79.1579 37.9518 78.6818 38.8796 77.7226C39.8074 76.7634 40.2688 75.5611 40.2688 74.1086C40.2688 72.6395 39.8125 71.427 38.8948 70.478C37.9771 69.5289 36.8706 69.0594 35.5624 69.0594C35.2505 69.0544 34.9415 69.0822 34.6356 69.142C34.3292 69.2022 34.033 69.2934 33.7458 69.4155C33.4587 69.5375 33.1877 69.6884 32.9325 69.8672C32.6767 70.0465 32.4427 70.2501 32.23 70.478C31.3129 71.4235 30.8566 72.6329 30.8566 74.1086C30.8566 75.5576 31.3179 76.7649 32.2452 77.7226V77.7241ZM59.7429 80.0548C58.1208 81.6425 56.1442 82.4188 53.8085 82.4188C51.4733 82.4188 49.4931 81.6252 47.874 80.0548C46.2554 78.4843 45.4441 76.4864 45.4441 74.1102C45.4441 71.7344 46.2554 69.7533 47.874 68.1661C49.4931 66.5784 51.4733 65.802 53.8085 65.802C56.1442 65.802 58.1244 66.5956 59.7429 68.1661C61.362 69.7365 62.1728 71.7395 62.1728 74.1102C62.1728 76.4813 61.362 78.4676 59.7429 80.0548ZM50.4933 77.7241C50.704 77.953 50.9364 78.1576 51.1902 78.3379C51.4439 78.5182 51.7138 78.6702 51.9995 78.7932C52.2851 78.9168 52.5804 79.0095 52.8857 79.0708C53.1911 79.132 53.499 79.1614 53.8105 79.1579C55.0948 79.1579 56.1999 78.6818 57.1272 77.7226C58.055 76.7634 58.5163 75.5611 58.5163 74.1086C58.5163 72.6395 58.06 71.427 57.1429 70.478C56.2252 69.5289 55.1181 69.0594 53.8105 69.0594C53.4985 69.0544 53.1896 69.0822 52.8832 69.142C52.5773 69.2022 52.2805 69.2934 51.9939 69.4155C51.7067 69.5375 51.4358 69.6884 51.18 69.8672C50.9248 70.0465 50.6908 70.2501 50.4781 70.478C49.5604 71.4235 49.1041 72.6329 49.1041 74.1086C49.1041 75.5576 49.5655 76.7649 50.4933 77.7226V77.7241ZM71.739 89.9172C69.8885 89.9172 68.3307 89.4204 67.0686 88.4308C65.8061 87.4412 64.9021 86.2967 64.3546 84.9895L67.5447 83.6672C67.8794 84.4674 68.3899 85.1617 69.1212 85.7512C69.853 86.3402 70.7099 86.6324 71.7441 86.6324C73.1327 86.6324 74.2246 86.2106 75.0101 85.3709C75.7961 84.5317 76.1932 83.3173 76.1932 81.7402V80.5582H76.0665C75.0527 81.8197 73.5708 82.4528 71.6798 82.4528C69.5542 82.4528 67.692 81.6425 66.0917 80.0244C65.7032 79.642 65.3568 79.2247 65.053 78.772C64.7496 78.3192 64.4944 77.8406 64.2883 77.3357C64.0821 76.8313 63.9287 76.3112 63.8284 75.7753C63.7281 75.2395 63.6825 74.6992 63.6922 74.1542C63.6825 73.6057 63.7276 73.0623 63.8279 72.523C63.9282 71.9836 64.0811 71.46 64.2877 70.9515C64.4939 70.4435 64.7486 69.9609 65.0525 69.5041C65.3563 69.0473 65.7027 68.6254 66.0917 68.2385C67.6885 66.6123 69.5557 65.7949 71.6798 65.7949C72.6258 65.7949 73.4842 65.9722 74.2515 66.3322C75.0187 66.6918 75.6254 67.1324 76.0665 67.6546H76.1932V66.3135H79.6673V81.2707C79.6673 84.1752 78.9274 86.3438 77.44 87.7891C75.9531 89.2249 74.0575 89.9511 71.7405 89.9511L71.739 89.9172ZM71.9922 79.1563C72.2936 79.1619 72.5919 79.1341 72.8866 79.0733C73.1819 79.0125 73.4665 78.9198 73.741 78.7963C74.0155 78.6722 74.2732 78.5197 74.5138 78.3384C74.7544 78.1571 74.9726 77.952 75.1676 77.7226C76.0189 76.7649 76.4449 75.5728 76.4449 74.139C76.4449 72.6901 76.0189 71.4777 75.1676 70.5084C74.9736 70.2769 74.7564 70.0698 74.5163 69.887C74.2758 69.7046 74.0185 69.5502 73.744 69.4251C73.469 69.2995 73.1839 69.2063 72.8886 69.1445C72.5929 69.0827 72.2941 69.0544 71.9922 69.0594C70.7084 69.0594 69.613 69.5456 68.711 70.5084C67.8085 71.4711 67.3522 72.6835 67.3522 74.139C67.3522 75.5677 67.8035 76.7649 68.711 77.7226C69.618 78.6803 70.7099 79.1579 71.9922 79.1579V79.1563ZM85.852 57.4305V81.9175H82.1904V57.4305H85.852ZM95.8892 82.4173C93.5302 82.4173 91.5631 81.6171 89.9851 80.0193C88.407 78.422 87.6159 76.4459 87.6159 74.0884C87.6159 71.6499 88.3766 69.6469 89.904 68.0936C90.2621 67.7163 90.6556 67.3806 91.0835 67.0853C91.5115 66.7901 91.9658 66.5419 92.4454 66.3409C92.9249 66.1393 93.4197 65.9899 93.9307 65.8911C94.4412 65.7929 94.9568 65.7478 95.4769 65.7564C96.4857 65.7564 97.4252 65.9387 98.2871 66.3084C99.0959 66.6397 99.8115 67.1127 100.433 67.727C100.948 68.2395 101.401 68.8016 101.792 69.4139C102.114 69.9366 102.388 70.484 102.613 71.0553L102.993 72.0013L91.8508 76.615C92.6955 78.2969 94.0472 79.1396 95.8927 79.1396C97.5756 79.1396 98.946 78.3744 99.9954 76.8379L102.834 78.7325C102.2 79.6785 101.308 80.5308 100.151 81.2874C98.9931 82.0441 97.569 82.4188 95.8856 82.4188L95.8892 82.4173ZM91.2491 73.8387L98.6842 70.7479C98.471 70.2212 98.0861 69.7958 97.5012 69.4712C97.2074 69.3071 96.897 69.1835 96.5703 69.101C96.2437 69.0184 95.9119 68.9799 95.5747 68.985C94.5 68.985 93.4967 69.4241 92.5618 70.3073C91.6274 71.1905 91.1762 72.371 91.2188 73.8402L91.2491 73.8387ZM122.223 82.4173C118.894 82.4173 116.106 81.2925 113.855 79.0399C111.604 76.7872 110.475 73.982 110.475 70.6162C110.475 67.2509 111.601 64.4422 113.855 62.1931C116.109 59.9435 118.895 58.8156 122.223 58.8156C125.631 58.8156 128.401 60.0483 130.525 62.5056L128.505 64.4645C126.985 62.5491 124.872 61.5935 122.22 61.5935C119.752 61.5935 117.681 62.424 115.967 64.0877C114.254 65.7514 113.426 67.9245 113.426 70.6162C113.426 73.3085 114.27 75.4867 115.967 77.1518C117.664 78.817 119.74 79.6461 122.22 79.6461C124.933 79.6461 127.249 78.5517 129.147 76.3664L131.167 78.3845C130.638 79.0156 130.045 79.5802 129.389 80.0781C128.733 80.5759 128.03 80.9947 127.28 81.3351C126.485 81.7007 125.659 81.9752 124.802 82.158C123.946 82.3408 123.08 82.4279 122.204 82.4188L122.223 82.4173ZM136.68 81.9175H133.774V59.3272H136.68V81.9175ZM141.417 68.3064C142.912 66.7409 144.796 65.9539 147.132 65.9539C149.467 65.9539 151.351 66.7389 152.847 68.3064C154.342 69.8733 155.089 71.8524 155.089 74.1917C155.089 76.5304 154.345 78.5096 152.847 80.0765C151.347 81.644 149.467 82.429 147.132 82.429C144.796 82.429 142.912 81.644 141.417 80.0765C139.921 78.5096 139.175 76.5304 139.175 74.1917C139.175 71.8524 139.918 69.8733 141.417 68.3064ZM143.58 78.2412C144.594 79.2597 145.766 79.7712 147.128 79.7712C148.49 79.7712 149.663 79.2591 150.677 78.2412C151.691 77.2227 152.178 75.8685 152.178 74.1882C152.178 72.5078 151.676 71.1515 150.677 70.1351C149.678 69.1187 148.49 68.6052 147.128 68.6052C145.766 68.6052 144.594 69.1167 143.58 70.1351C142.566 71.1536 142.079 72.5078 142.079 74.1882C142.079 75.8685 142.581 77.2243 143.58 78.2412ZM171.157 81.9175H168.377V79.7727H168.25C167.811 80.5075 167.135 81.1355 166.231 81.6303C165.327 82.1251 164.373 82.4072 163.359 82.4072C161.421 82.4072 159.955 81.8197 158.957 80.6392C157.958 79.4587 157.456 77.8816 157.456 75.9055V66.4386H160.363V75.4294C160.363 78.3136 161.635 79.7524 164.182 79.7524C164.466 79.7585 164.748 79.7306 165.026 79.6689C165.304 79.6071 165.571 79.5129 165.827 79.3868C166.083 79.2607 166.32 79.1062 166.538 78.9229C166.756 78.74 166.95 78.5334 167.119 78.3035C167.305 78.0675 167.47 77.8168 167.613 77.5524C167.757 77.2881 167.877 77.0136 167.974 76.7285C168.071 76.4433 168.143 76.1526 168.19 75.8554C168.237 75.5581 168.258 75.2588 168.254 74.9579V66.4386H171.16V81.9023L171.157 81.9175ZM181.005 82.4188C179.006 82.4188 177.277 81.6288 175.827 80.0512C174.377 78.4742 173.651 76.5188 173.651 74.1816C173.651 71.8443 174.377 69.8885 175.827 68.3114C177.277 66.7339 179.008 65.9438 181.005 65.9438C182.181 65.9438 183.242 66.197 184.182 66.6984C185.121 67.1998 185.821 67.8333 186.282 68.5935H186.409L186.282 66.4487V59.3221H189.189V81.9175H186.409V79.7727H186.282C185.821 80.5278 185.121 81.1608 184.182 81.6678C183.244 82.1641 182.183 82.4173 181.005 82.4173V82.4188ZM181.478 79.7676C181.806 79.7722 182.13 79.7423 182.452 79.6775C182.774 79.6132 183.085 79.5154 183.385 79.3853C183.686 79.2546 183.97 79.0935 184.237 78.9031C184.503 78.7122 184.747 78.4954 184.968 78.2528C185.926 77.2445 186.404 75.8852 186.404 74.1998C186.404 72.5144 185.927 71.1384 184.968 70.1468C184.747 69.9042 184.503 69.6879 184.237 69.497C183.97 69.3061 183.686 69.1455 183.385 69.0149C183.085 68.8842 182.774 68.7865 182.452 68.7221C182.13 68.6578 181.806 68.6274 181.478 68.632C180.13 68.632 178.972 69.144 178.004 70.162C177.036 71.1804 176.554 72.5346 176.554 74.215C176.554 75.8954 177.036 77.2516 178.004 78.268C178.222 78.5116 178.464 78.7289 178.729 78.9208C178.995 79.1128 179.277 79.2748 179.576 79.407C179.876 79.5387 180.186 79.6375 180.506 79.7038C180.827 79.7696 181.15 79.801 181.478 79.798V79.7676Z" fill="#5F6368"/>
  </g>
</svg>