<svg xmlns="http://www.w3.org/2000/svg" width="18" height="22" viewBox="0 0 18 22" fill="none">
  <path d="M8.96681 0.830078C6.77956 0.832658 4.68264 1.70268 3.13602 3.2493C1.58941 4.79591 0.719386 6.89283 0.716806 9.08008C0.714186 10.8675 1.29804 12.6064 2.37881 14.0301C2.37881 14.0301 2.60381 14.3263 2.64056 14.3691L8.96681 21.8301L15.2961 14.3653C15.3291 14.3256 15.5548 14.0301 15.5548 14.0301L15.5556 14.0278C16.6358 12.6048 17.2194 10.8667 17.2168 9.08008C17.2142 6.89283 16.3442 4.79591 14.7976 3.2493C13.251 1.70268 11.154 0.832658 8.96681 0.830078ZM8.96681 12.0801C8.37346 12.0801 7.79344 11.9041 7.3001 11.5745C6.80675 11.2448 6.42223 10.7763 6.19517 10.2281C5.9681 9.67995 5.90869 9.07675 6.02445 8.49481C6.14021 7.91286 6.42593 7.37831 6.84548 6.95876C7.26504 6.5392 7.79959 6.25348 8.38153 6.13772C8.96348 6.02197 9.56668 6.08138 10.1149 6.30844C10.663 6.5355 11.1316 6.92002 11.4612 7.41337C11.7909 7.90672 11.9668 8.48673 11.9668 9.08008C11.9658 9.87542 11.6494 10.6379 11.087 11.2003C10.5246 11.7627 9.76215 12.0791 8.96681 12.0801Z" fill="white"/>
</svg>