<svg xmlns="http://www.w3.org/2000/svg" width="16" height="20" viewBox="0 0 16 20" fill="none">
  <path d="M8.25 0C4.11447 0 0.75 3.50572 0.75 7.81489C0.75 9.59298 1.30922 11.2675 2.36723 12.6575C3.73715 14.4573 7.72092 18.7306 7.88981 18.9116L8.24995 19.2977L8.61014 18.9117C8.77913 18.7306 12.7641 14.4563 14.1342 12.656C15.1913 11.2671 15.75 9.59308 15.75 7.81489C15.75 3.50572 12.3855 0 8.25 0ZM13.347 12.0055C12.244 13.4547 9.28194 16.6787 8.25 17.7938C7.21816 16.6788 4.25714 13.4557 3.15442 12.007C2.23873 10.8039 1.75471 9.35434 1.75471 7.81489C1.75471 4.08298 4.66846 1.04689 8.25 1.04689C11.8315 1.04689 14.7453 4.08298 14.7452 7.81489C14.7452 9.35444 14.2617 10.8035 13.347 12.0055Z" fill="#64BD2F"/>
  <path d="M8.25005 3.10156C5.80208 3.10156 3.81055 5.17671 3.81055 7.72746C3.81055 10.2782 5.80213 12.3534 8.25005 12.3534C10.698 12.3534 12.6896 10.2782 12.6896 7.72746C12.6896 5.17676 10.698 3.10156 8.25005 3.10156ZM8.25005 11.3065C6.35608 11.3065 4.81526 9.7009 4.81526 7.72746C4.81526 5.75397 6.35613 4.14845 8.25005 4.14845C10.144 4.14845 11.6848 5.75402 11.6849 7.72746C11.6849 9.70096 10.144 11.3065 8.25005 11.3065Z" fill="#64BD2F"/>
</svg>