<svg width="35" height="36" viewBox="0 0 35 36" fill="none" xmlns="http://www.w3.org/2000/svg">
<g id="Exclude">
<path fill-rule="evenodd" clip-rule="evenodd" d="M12.1294 5.47711C10.1787 7.75093 9 10.7066 9 13.9375C9 21.1172 14.8203 26.9375 22 26.9375C24.6706 26.9375 27.1531 26.1322 29.2179 24.7513C27.599 30.6934 22.1642 35.0623 15.709 35.0623H14C6.26801 35.0623 0 28.7942 0 21.0623V19.3532C0 12.2555 5.28186 6.39141 12.1294 5.47711ZM12.1294 5.47711C14.5137 2.69808 18.0512 0.9375 22 0.9375C29.1797 0.9375 35 6.7578 35 13.9375C35 18.4466 32.7043 22.4196 29.2179 24.7513C29.5381 23.5759 29.709 22.3391 29.709 21.0623V19.3532C29.709 11.6212 23.441 5.35323 15.709 5.35323H14C13.3657 5.35323 12.7413 5.39541 12.1294 5.47711Z" fill="#D9D9D9"/>
<path fill-rule="evenodd" clip-rule="evenodd" d="M12.1294 5.47711C10.1787 7.75093 9 10.7066 9 13.9375C9 21.1172 14.8203 26.9375 22 26.9375C24.6706 26.9375 27.1531 26.1322 29.2179 24.7513C27.599 30.6934 22.1642 35.0623 15.709 35.0623H14C6.26801 35.0623 0 28.7942 0 21.0623V19.3532C0 12.2555 5.28186 6.39141 12.1294 5.47711ZM12.1294 5.47711C14.5137 2.69808 18.0512 0.9375 22 0.9375C29.1797 0.9375 35 6.7578 35 13.9375C35 18.4466 32.7043 22.4196 29.2179 24.7513C29.5381 23.5759 29.709 22.3391 29.709 21.0623V19.3532C29.709 11.6212 23.441 5.35323 15.709 5.35323H14C13.3657 5.35323 12.7413 5.39541 12.1294 5.47711Z" fill="url(#paint0_linear_245_809)"/>
</g>
<defs>
<linearGradient id="paint0_linear_245_809" x1="-34.6812" y1="12.8439" x2="47.7307" y2="12.6083" gradientUnits="userSpaceOnUse">
<stop offset="0.0125523" stop-color="#126106"/>
<stop offset="1" stop-color="#0F294E"/>
</linearGradient>
</defs>
</svg>
