<svg width="13" height="15" viewBox="0 0 13 15" fill="none" xmlns="http://www.w3.org/2000/svg">
<path id="Vector" d="M11.1667 1.25H12.5V0H11.1667C10.7868 0.00135297 10.4116 0.0791684 10.0666 0.228184C9.72153 0.3772 9.41465 0.593941 9.16667 0.86375C8.91869 0.593941 8.6118 0.3772 8.26676 0.228184C7.92171 0.0791684 7.54656 0.00135297 7.16667 0H6.5C4.90924 0.00165428 3.38414 0.594818 2.25931 1.64935C1.13447 2.70389 0.501765 4.13367 0.5 5.625V9.375C0.501765 10.8663 1.13447 12.2961 2.25931 13.3506C3.38414 14.4052 4.90924 14.9983 6.5 15H7.16667C7.54656 14.9986 7.92171 14.9208 8.26676 14.7718C8.6118 14.6228 8.91869 14.4061 9.16667 14.1362C9.41465 14.4061 9.72153 14.6228 10.0666 14.7718C10.4116 14.9208 10.7868 14.9986 11.1667 15H12.5V13.75H11.1667C10.813 13.75 10.4739 13.6183 10.2239 13.3839C9.97381 13.1495 9.83333 12.8315 9.83333 12.5V2.5C9.83333 2.16848 9.97381 1.85054 10.2239 1.61612C10.4739 1.3817 10.813 1.25 11.1667 1.25ZM7.16667 13.75H6.5C5.37896 13.7481 4.29605 13.3682 3.44905 12.6798C2.60206 11.9913 2.0475 11.0401 1.88667 10H3.16667V8.75H1.83333V6.25H3.83333C4.3636 6.2495 4.872 6.0518 5.24696 5.70028C5.62192 5.34875 5.8328 4.87213 5.83333 4.375V3.125H4.5V4.375C4.5 4.54076 4.42976 4.69973 4.30474 4.81694C4.17971 4.93415 4.01014 5 3.83333 5H1.88667C2.0475 3.9599 2.60206 3.00874 3.44905 2.32025C4.29605 1.63176 5.37896 1.25188 6.5 1.25H7.16667C7.52029 1.25 7.85943 1.3817 8.10948 1.61612C8.35952 1.85054 8.5 2.16848 8.5 2.5V5H7.16667V6.25H8.5V8.75H7.16667C6.6364 8.7505 6.128 8.9482 5.75304 9.29972C5.37808 9.65125 5.1672 10.1279 5.16667 10.625V11.875H6.5V10.625C6.5 10.4592 6.57024 10.3003 6.69526 10.1831C6.82029 10.0658 6.98986 10 7.16667 10H8.5V12.5C8.5 12.8315 8.35952 13.1495 8.10948 13.3839C7.85943 13.6183 7.52029 13.75 7.16667 13.75Z" fill="#FFF6E9"/>
</svg>
