<svg xmlns="http://www.w3.org/2000/svg" width="20" height="20" viewBox="0 0 20 20" fill="none">
  <path d="M17.717 9.32908H19.717C19.717 4.19908 15.844 0.330078 10.707 0.330078V2.33008C14.769 2.33008 17.717 5.27308 17.717 9.32908Z" fill="white"/>
  <path d="M10.7171 6.33032C12.8201 6.33032 13.7171 7.22732 13.7171 9.33032H15.7171C15.7171 6.10532 13.9421 4.33032 10.7171 4.33032V6.33032ZM14.1391 11.7733C13.9469 11.5987 13.6944 11.5055 13.4349 11.5135C13.1753 11.5216 12.9291 11.6301 12.7481 11.8163L10.3551 14.2773C9.77908 14.1673 8.62108 13.8063 7.42908 12.6173C6.23708 11.4243 5.87608 10.2633 5.76908 9.69132L8.22808 7.29732C8.41449 7.11645 8.52321 6.87014 8.53124 6.61052C8.53927 6.35091 8.44596 6.09836 8.27108 5.90632L4.57608 1.84332C4.40112 1.65067 4.15796 1.53382 3.89823 1.51758C3.63851 1.50133 3.38268 1.58698 3.18508 1.75632L1.01508 3.61732C0.84219 3.79083 0.738998 4.02177 0.725079 4.26632C0.710079 4.51632 0.424079 10.4383 5.01608 15.0323C9.02208 19.0373 14.0401 19.3303 15.4221 19.3303C15.6241 19.3303 15.7481 19.3243 15.7811 19.3223C16.0256 19.3086 16.2564 19.205 16.4291 19.0313L18.2891 16.8603C18.4585 16.6628 18.5444 16.4071 18.5283 16.1474C18.5122 15.8876 18.3956 15.6444 18.2031 15.4693L14.1391 11.7733Z" fill="white"/>
</svg>