<svg xmlns="http://www.w3.org/2000/svg" width="28" height="31" viewBox="0 0 28 31" fill="none">
  <path d="M25.0294 8.14786V7.85375C25.0294 5.38293 25.0294 4.14752 24.5486 3.20379C24.1256 2.37366 23.4507 1.69875 22.6205 1.27578C21.6768 0.794922 20.4414 0.794922 17.9706 0.794922H8.55882C6.088 0.794922 4.85259 0.794922 3.90887 1.27578C3.07874 1.69875 2.40382 2.37366 1.98085 3.20379C1.5 4.14752 1.5 5.38293 1.5 7.85375V23.1479C1.5 25.6187 1.5 26.8541 1.98085 27.7978C2.40382 28.6279 3.07874 29.3029 3.90887 29.7258C4.85259 30.2067 6.088 30.2067 8.55882 30.2067H14M14 14.0302H7.38235M12.5294 19.9126H7.38235M19.1471 8.14786H7.38235M22.0882 24.3243V16.2361C22.0882 15.0178 23.0758 14.0302 24.2941 14.0302C25.5124 14.0302 26.5 15.0178 26.5 16.2361V24.3243C26.5 26.7609 24.5248 28.7361 22.0882 28.7361C19.6517 28.7361 17.6765 26.7609 17.6765 24.3243V18.442" stroke="#888888" stroke-width="1.5" stroke-linecap="round" stroke-linejoin="round"/>
</svg>