<svg xmlns="http://www.w3.org/2000/svg" width="20" height="21" viewBox="0 0 20 21" fill="none">
  <path d="M17.6562 4.9375H14.6875C14.6875 2.34867 12.5888 0.25 10 0.25C7.41117 0.25 5.3125 2.34867 5.3125 4.9375H2.34375C1.04934 4.9375 0 5.98684 0 7.28125V17.9062C0 19.2007 1.04934 20.25 2.34375 20.25H17.6562C18.9507 20.25 20 19.2007 20 17.9062V7.28125C20 5.98684 18.9507 4.9375 17.6562 4.9375ZM10 2.59375C11.2944 2.59375 12.3438 3.64309 12.3438 4.9375H7.65625C7.65625 3.64309 8.70559 2.59375 10 2.59375ZM15.7031 10.4062V11.1875C15.7031 11.8347 15.1785 12.3594 14.5312 12.3594C13.884 12.3594 13.3594 11.8347 13.3594 11.1875V10.4062H6.64062V11.1875C6.64062 11.8347 6.11598 12.3594 5.46875 12.3594C4.82152 12.3594 4.29688 11.8347 4.29688 11.1875V10.4062C3.64965 10.4062 3.125 9.8816 3.125 9.23438C3.125 8.58715 3.64965 8.0625 4.29688 8.0625H15.7031C16.3504 8.0625 16.875 8.58715 16.875 9.23438C16.875 9.8816 16.3504 10.4062 15.7031 10.4062Z" fill="#727272"/>
</svg>