<svg xmlns="http://www.w3.org/2000/svg" width="21" height="22" viewBox="0 0 21 22" fill="none">
  <path d="M6.18474 3.77275H7.52254C7.56722 3.77564 7.61202 3.76916 7.65394 3.75374C7.69586 3.73832 7.73392 3.71432 7.76559 3.68334C7.79726 3.65237 7.82179 3.61513 7.83755 3.57412C7.85332 3.53312 7.85994 3.48929 7.85698 3.44557V2.46404H13.1413V3.44557C13.1383 3.48929 13.1449 3.53312 13.1607 3.57412C13.1765 3.61513 13.201 3.65237 13.2327 3.68334C13.2643 3.71432 13.3024 3.73832 13.3443 3.75374C13.3862 3.76916 13.431 3.77564 13.4757 3.77275H14.8135C14.8582 3.77564 14.903 3.76916 14.9449 3.75374C14.9868 3.73832 15.0249 3.71432 15.0566 3.68334C15.0882 3.65237 15.1128 3.61513 15.1285 3.57412C15.1443 3.53312 15.1509 3.48929 15.148 3.44557V2.46404C15.148 1.9434 14.9365 1.44409 14.5602 1.07594C14.1839 0.707799 13.6735 0.500977 13.1413 0.500977H7.85698C7.32478 0.500977 6.81437 0.707799 6.43804 1.07594C6.06171 1.44409 5.8503 1.9434 5.8503 2.46404V3.44557C5.84734 3.48929 5.85396 3.53312 5.86973 3.57412C5.88549 3.61513 5.91002 3.65237 5.94169 3.68334C5.97336 3.71432 6.01142 3.73832 6.05334 3.75374C6.09526 3.76916 6.14006 3.77564 6.18474 3.77275Z" fill="#727272"/>
  <path d="M18.4933 7.66821H2.50669C1.97448 7.66821 1.46407 7.87504 1.08775 8.24318C0.711418 8.61133 0.5 9.11064 0.5 9.63128V20.0355C0.5 20.5562 0.711418 21.0555 1.08775 21.4236C1.46407 21.7918 1.97448 21.9986 2.50669 21.9986H18.4933C19.0255 21.9986 19.5359 21.7918 19.9123 21.4236C20.2886 21.0555 20.5 20.5562 20.5 20.0355V9.63128C20.4873 9.11456 20.2718 8.62245 19.8982 8.25697C19.5246 7.89149 19.0215 7.68067 18.4933 7.66821ZM15.5836 12.9358L9.76421 18.6287C9.65912 18.7323 9.53409 18.8146 9.39632 18.8708C9.25855 18.9269 9.11078 18.9558 8.96154 18.9558C8.81229 18.9558 8.66452 18.9269 8.52676 18.8708C8.38899 18.8146 8.26395 18.7323 8.15886 18.6287L5.3495 15.8804C5.29395 15.8304 5.24961 15.7697 5.21928 15.7022C5.18895 15.6346 5.17329 15.5616 5.17329 15.4878C5.17329 15.4139 5.18895 15.3409 5.21928 15.2734C5.24961 15.2058 5.29395 15.1451 5.3495 15.0951L6.15217 14.3099C6.20323 14.2556 6.26527 14.2122 6.33435 14.1825C6.40344 14.1529 6.47806 14.1375 6.55351 14.1375C6.62896 14.1375 6.70359 14.1529 6.77267 14.1825C6.84175 14.2122 6.90379 14.2556 6.95485 14.3099L8.96154 16.273L13.9783 11.3653C14.0293 11.311 14.0914 11.2676 14.1604 11.2379C14.2295 11.2083 14.3042 11.1929 14.3796 11.1929C14.455 11.1929 14.5297 11.2083 14.5988 11.2379C14.6678 11.2676 14.7299 11.311 14.7809 11.3653L15.5836 12.1505C15.681 12.2592 15.7347 12.3987 15.7347 12.5432C15.7347 12.6876 15.681 12.8272 15.5836 12.9358Z" fill="#727272"/>
</svg>