<svg xmlns="http://www.w3.org/2000/svg" width="20" height="21" viewBox="0 0 20 21" fill="none">
  <path fill-rule="evenodd" clip-rule="evenodd" d="M10 0.416748C4.48071 0.416748 0 4.82278 0 10.2501C0 15.6774 4.48071 20.0834 10 20.0834C15.5193 20.0834 20 15.6774 20 10.2501C20 4.82278 15.5193 0.416748 10 0.416748ZM5.19357 7.68288L5.30071 7.8648L9.75071 15.4449L10.3693 15.7961L9.75429 15.4498L9.86143 15.6324C10.2007 16.2112 10.8457 16.6059 11.6864 16.6741C12.3957 16.7317 13.1986 16.5448 13.9143 16.1381C14.715 15.6837 15.4271 15.2791 15.4271 15.2791C15.7686 15.0853 15.8857 14.6561 15.6886 14.3197L14.205 11.7932C14.0079 11.4575 13.5707 11.3423 13.2293 11.5361L12.6107 11.8873L9.86357 7.20807L10.4821 6.85688C10.8236 6.66302 10.9407 6.23317 10.7436 5.89743L9.26 3.37096C9.06286 3.03452 8.62571 2.92003 8.28429 3.11389C8.28429 3.11389 7.57214 3.51776 6.77143 3.9729C6.05571 4.37888 5.48929 4.96958 5.18571 5.60172C4.825 6.35187 4.85071 7.0985 5.19 7.67726L5.19357 7.68288ZM10.9914 14.7474L6.42714 6.97488C6.30071 6.75925 6.34286 6.48181 6.47714 6.20226C6.66786 5.80471 7.03571 5.44439 7.48571 5.18943L8.38 4.6816L9.14929 5.99155L8.53071 6.34274C8.18929 6.53659 8.07214 6.96645 8.26929 7.30219L11.7307 13.198C11.9279 13.5337 12.365 13.6489 12.7064 13.455L13.325 13.1039L14.0943 14.4138L13.2 14.9216C12.75 15.1773 12.2493 15.31 11.8036 15.2742C11.4964 15.2496 11.2364 15.1506 11.1064 14.9441L10.9914 14.7474Z" fill="#727272"/>
</svg>