<svg xmlns="http://www.w3.org/2000/svg" width="32" height="32" viewBox="0 0 32 32" fill="none">
  <path d="M16 3.02632H8.82632C6.26186 3.02632 4.97964 3.02632 4.00015 3.52539C3.13856 3.96439 2.43807 4.66488 1.99908 5.52646C1.5 6.50596 1.5 7.78818 1.5 10.3526V23.1737C1.5 25.7381 1.5 27.0204 1.99908 27.9999C2.43807 28.8614 3.13856 29.5619 4.00015 30.0009C4.97964 30.5 6.26186 30.5 8.82632 30.5H22.8684C24.2879 30.5 24.9976 30.5 25.5799 30.344C27.16 29.9206 28.3943 28.6863 28.8177 27.1062C28.9737 26.5239 28.9737 25.8142 28.9737 24.3947M25.9211 10.6579V1.5M21.3421 6.07895H30.5M12.9474 11.4211C12.9474 13.107 11.5807 14.4737 9.89474 14.4737C8.20882 14.4737 6.84211 13.107 6.84211 11.4211C6.84211 9.73513 8.20882 8.36842 9.89474 8.36842C11.5807 8.36842 12.9474 9.73513 12.9474 11.4211ZM19.8006 16.6382L6.88965 28.3754C6.16345 29.0356 5.80035 29.3657 5.76823 29.6517C5.74039 29.8995 5.83543 30.1453 6.02276 30.31C6.23887 30.5 6.72959 30.5 7.71101 30.5H22.0381C24.2347 30.5 25.333 30.5 26.1957 30.131C27.2786 29.6677 28.1414 28.8049 28.6047 27.722C28.9737 26.8593 28.9737 25.761 28.9737 23.5644C28.9737 22.8253 28.9737 22.4558 28.8929 22.1116C28.7914 21.6791 28.5966 21.274 28.3223 20.9245C28.1041 20.6464 27.8155 20.4156 27.2384 19.9539L22.9689 16.5383C22.3913 16.0762 22.1025 15.8451 21.7844 15.7636C21.5041 15.6917 21.2091 15.701 20.9339 15.7904C20.6216 15.8918 20.3479 16.1406 19.8006 16.6382Z" stroke="#616163" stroke-width="2" stroke-linecap="round" stroke-linejoin="round"/>
</svg>