<svg xmlns="http://www.w3.org/2000/svg" width="20" height="21" viewBox="0 0 20 21" fill="none">
  <path fill-rule="evenodd" clip-rule="evenodd" d="M0.417744 0.874916H8.35488C8.58561 0.874916 8.77263 1.06516 8.77263 1.29986V9.37385C8.77263 9.60855 8.58561 9.7988 8.35488 9.7988H0.417744C0.187019 9.7988 0 9.60855 0 9.37385V1.29986C0 1.06516 0.187019 0.874916 0.417744 0.874916ZM15.1514 0.202093L19.8777 5.00983C20.0408 5.17578 20.0408 5.44482 19.8777 5.61079L15.1514 10.4185C14.9883 10.5844 14.7238 10.5844 14.5606 10.4185L9.8344 5.61076C9.67127 5.44482 9.67127 5.17578 9.8344 5.00981L14.5607 0.202093C14.7238 0.0361513 14.9883 0.0361513 15.1514 0.202093ZM0.417744 11.4986H8.35488C8.58561 11.4986 8.77263 11.6888 8.77263 11.9235V19.9975C8.77263 20.2322 8.58561 20.4225 8.35488 20.4225H0.417744C0.187019 20.4225 0 20.2322 0 19.9975V11.9235C0 11.6888 0.187019 11.4986 0.417744 11.4986ZM10.8614 11.4986H18.7985C19.0292 11.4986 19.2162 11.6888 19.2162 11.9235V19.9975C19.2162 20.2322 19.0292 20.4225 18.7985 20.4225H10.8614C10.6306 20.4225 10.4436 20.2322 10.4436 19.9975V11.9235C10.4436 11.6888 10.6306 11.4986 10.8614 11.4986Z" fill="#727272"/>
</svg>