<svg xmlns="http://www.w3.org/2000/svg" width="20" height="21" viewBox="0 0 20 21" fill="none">
  <path d="M5 7.75C5.66304 7.75 6.29893 7.48661 6.76777 7.01777C7.23661 6.54893 7.5 5.91304 7.5 5.25M5 7.75C4.33696 7.75 3.70107 7.48661 3.23223 7.01777C2.76339 6.54893 2.5 5.91304 2.5 5.25M5 7.75V10.25M7.5 5.25C7.5 4.58696 7.23661 3.95107 6.76777 3.48223C6.29893 3.01339 5.66304 2.75 5 2.75M7.5 5.25H10M5 2.75C4.33696 2.75 3.70107 3.01339 3.23223 3.48223C2.76339 3.95107 2.5 4.58696 2.5 5.25M5 2.75V0.25M2.5 5.25H0M1.66667 1.91667L3.33333 3.58333M6.66667 6.91667L8.33333 8.58333M8.33333 1.91667L6.66667 3.58333M3.33333 6.91667L1.66667 8.58333M15 10.25C15.663 10.25 16.2989 9.98661 16.7678 9.51777C17.2366 9.04893 17.5 8.41304 17.5 7.75M15 10.25C14.337 10.25 13.7011 9.98661 13.2322 9.51777C12.7634 9.04893 12.5 8.41304 12.5 7.75M15 10.25V12.75M17.5 7.75C17.5 7.08696 17.2366 6.45107 16.7678 5.98223C16.2989 5.51339 15.663 5.25 15 5.25M17.5 7.75H20M15 5.25C14.337 5.25 13.7011 5.51339 13.2322 5.98223C12.7634 6.45107 12.5 7.08696 12.5 7.75M15 5.25V2.75M12.5 7.75H10M11.6667 4.41667L13.3333 6.08333M16.6667 9.41667L18.3333 11.0833M18.3333 4.41667L16.6667 6.08333M13.3333 9.41667L11.6667 11.0833M7.5 17.75C8.16304 17.75 8.79893 17.4866 9.26777 17.0178C9.73661 16.5489 10 15.913 10 15.25M7.5 17.75C6.83696 17.75 6.20107 17.4866 5.73223 17.0178C5.26339 16.5489 5 15.913 5 15.25M7.5 17.75V20.25M10 15.25C10 14.587 9.73661 13.9511 9.26777 13.4822C8.79893 13.0134 8.16304 12.75 7.5 12.75M10 15.25H12.5M7.5 12.75C6.83696 12.75 6.20107 13.0134 5.73223 13.4822C5.26339 13.9511 5 14.587 5 15.25M7.5 12.75V10.25M5 15.25H2.5M4.16667 11.9167L5.83333 13.5833M9.16667 16.9167L10.8333 18.5833M10.8333 11.9167L9.16667 13.5833M5.83333 16.9167L4.16667 18.5833" stroke="#727272" stroke-width="2"/>
</svg>